<svg width="154" height="154" viewBox="0 0 154 154" fill="none" xmlns="http://www.w3.org/2000/svg">
<rect width="154" height="154" rx="57" fill="white"/>
<path d="M51.2792 119V39H71.3681C76.4051 39 80.731 40.0074 84.3458 42.0222C87.9606 44.037 90.7458 46.7037 92.7014 50.0222C94.7162 53.2815 95.7236 56.8667 95.7236 60.7778C95.7236 65.163 94.4792 69.1037 91.9903 72.6C89.5014 76.0963 86.094 78.6741 81.7681 80.3333L108.613 119H96.7903L71.3681 82.2H61.4125V119H51.2792ZM61.4125 73.6667H71.3681C74.8051 73.6667 77.5903 73.0444 79.7236 71.8C81.9162 70.4963 83.5162 68.8667 84.5236 66.9111C85.5903 64.8963 86.1236 62.8519 86.1236 60.7778C86.1236 57.0444 84.7606 53.9926 82.0347 51.6222C79.3681 49.2519 75.8125 48.0667 71.3681 48.0667H61.4125V73.6667Z" fill="black"/>
</svg>
